<svg width="375" height="156" viewBox="0 0 375 156" fill="none" xmlns="http://www.w3.org/2000/svg">
<g clip-path="url(#clip0_1_47)">
<rect width="375" height="156" fill="url(#paint0_linear_1_47)"/>
<g opacity="0.2">
<path d="M45.486 23L37 65H80.1575L89.1233 23H45.486Z" fill="#EBC962" style="mix-blend-mode:multiply"/>
<path d="M87.486 89L79 131H122.158L131.123 89H87.486Z" fill="#EBC962" style="mix-blend-mode:multiply"/>
<path d="M11.486 131L3.00001 173H46.1575L55.1233 131H11.486Z" fill="#EBC962" style="mix-blend-mode:multiply"/>
<path d="M129.486 23L121 65H164.158L173.123 23H129.486Z" fill="#EBC962" style="mix-blend-mode:multiply"/>
<path d="M165.486 95L157 137H200.158L209.123 95H165.486Z" fill="#EBC962" style="mix-blend-mode:multiply"/>
<path d="M210.486 34L202 76H245.158L254.123 34H210.486Z" fill="#EBC962" style="mix-blend-mode:multiply"/>
<path d="M197.486 -25L189 17H232.158L241.123 -25H197.486Z" fill="#EBC962" style="mix-blend-mode:multiply"/>
<path d="M240.486 95L232 137H275.158L284.123 95H240.486Z" fill="#EBC962" style="mix-blend-mode:multiply"/>
<path d="M288.486 2L280 44H323.158L332.123 2H288.486Z" fill="#EBC962" style="mix-blend-mode:multiply"/>
<path d="M312.486 56L304 98H347.158L356.123 56H312.486Z" fill="#EBC962" style="mix-blend-mode:multiply"/>
<path d="M329.486 125L321 167H364.158L373.123 125H329.486Z" fill="#EBC962" style="mix-blend-mode:multiply"/>
<path d="M97.6093 -30.0514L89.1233 11.9486H132.281L141.247 -30.0514H97.6093Z" fill="#EBC962" style="mix-blend-mode:multiply"/>
<path d="M-15.514 -19L-23.9999 23H19.1576L28.1234 -19H-15.514Z" fill="#EBC962" style="mix-blend-mode:multiply"/>
<path d="M-24.4798 61.9486L-32.9657 103.949H10.1918L19.1576 61.9486H-24.4798Z" fill="#EBC962" style="mix-blend-mode:multiply"/>
</g>
</g>
<defs>
<linearGradient id="paint0_linear_1_47" x1="165" y1="37.5818" x2="205.441" y2="237.917" gradientUnits="userSpaceOnUse">
<stop stop-color="#E0AD0F"/>
<stop offset="0.738102" stop-color="#A07801"/>
</linearGradient>
<clipPath id="clip0_1_47">
<rect width="375" height="156" fill="white"/>
</clipPath>
</defs>
</svg>
