<svg width="33" height="32" viewBox="0 0 33 32" fill="none" xmlns="http://www.w3.org/2000/svg">
<g id="vuesax/bold/home">
<g id="home">
<path id="Vector" d="M14.1403 4.20018L14.1408 4.19976C15.5865 3.03865 17.9069 3.04547 19.3742 4.21437C19.3743 4.21448 19.3744 4.21458 19.3746 4.21469L28.1021 11.1967C28.1029 11.1973 28.1037 11.198 28.1044 11.1986C28.6074 11.6095 29.0429 12.2525 29.3239 12.9879C29.6048 13.7229 29.7095 14.4931 29.6117 15.1346L27.9332 25.1793C27.9331 25.1799 27.933 25.1805 27.9329 25.1812C27.6 27.0917 25.741 28.6667 23.8167 28.6667H9.68336C7.73074 28.6667 5.91343 27.1302 5.58067 25.1953C5.58059 25.1948 5.58051 25.1944 5.58043 25.1939L3.90092 15.1434L3.90066 15.1419C3.79113 14.4957 3.88944 13.7239 4.16961 12.9892C4.44976 12.2545 4.89073 11.6121 5.40582 11.2011L5.40698 11.2002L14.1403 4.20018ZM16.75 25.6667C17.6649 25.6667 18.4167 24.9148 18.4167 24V20C18.4167 19.0851 17.6649 18.3333 16.75 18.3333C15.8352 18.3333 15.0834 19.0851 15.0834 20V24C15.0834 24.9148 15.8352 25.6667 16.75 25.6667Z" fill="#E6B014" stroke="#E6B014" stroke-width="1.33333"/>
</g>
</g>
</svg>
