<svg width="157" height="62" viewBox="0 0 157 62" fill="none" xmlns="http://www.w3.org/2000/svg">
<path d="M157 0H111.5L98 62H144L157 0Z" fill="#E6B014"/>
<path d="M1.60862 44L7.63113 15.241H17.4594C19.5911 15.241 21.0821 15.3064 21.9321 15.4372C23.3446 15.6334 24.5412 16.0257 25.5221 16.6142C26.503 17.2028 27.2484 17.9875 27.7585 18.9683C28.2685 19.9492 28.5236 21.0347 28.5236 22.2248C28.5236 23.8203 28.0789 25.2066 27.1896 26.3837C26.3003 27.5476 24.9271 28.4304 23.07 29.032C24.5478 29.4374 25.6987 30.1633 26.5226 31.2095C27.3596 32.2427 27.7781 33.4132 27.7781 34.721C27.7781 36.4473 27.2877 38.0887 26.3068 39.645C25.3259 41.1882 23.9723 42.2998 22.246 42.9799C20.5197 43.66 18.1591 44 15.1642 44H1.60862ZM11.1034 26.8545H15.6154C17.6425 26.8545 19.1007 26.7106 19.99 26.4229C20.8794 26.1352 21.5463 25.6644 21.991 25.0104C22.4357 24.3565 22.658 23.6569 22.658 22.9114C22.658 22.179 22.4487 21.5774 22.0302 21.1066C21.6117 20.6358 21.0167 20.3219 20.2451 20.165C19.8135 20.0865 18.7738 20.0473 17.1259 20.0473H12.5355L11.1034 26.8545ZM8.49429 39.3703H14.2029C16.5962 39.3703 18.1983 39.2199 19.0092 38.9191C19.8331 38.6052 20.487 38.0952 20.9709 37.389C21.4679 36.6827 21.7164 35.9373 21.7164 35.1526C21.7164 34.1979 21.3632 33.4132 20.657 32.7985C19.9508 32.1708 18.7738 31.8569 17.1259 31.8569H10.0637L8.49429 39.3703ZM36.9802 29.0712L31.4873 28.6004C32.1151 26.7433 33.2071 25.2916 34.7634 24.2454C36.3328 23.1991 38.4057 22.676 40.9821 22.676C43.6632 22.676 45.6445 23.2187 46.9262 24.3042C48.2078 25.3766 48.8487 26.691 48.8487 28.2473C48.8487 28.8751 48.7898 29.542 48.6721 30.2483C48.5675 30.9545 48.1817 32.8116 47.5147 35.8196C46.9654 38.3044 46.6908 40.0438 46.6908 41.0378C46.6908 41.9271 46.8477 42.9145 47.1616 44H41.6883C41.466 43.2415 41.3287 42.4568 41.2764 41.6459C40.4525 42.5614 39.5043 43.2676 38.4319 43.7646C37.3595 44.2485 36.2805 44.4904 35.195 44.4904C33.4687 44.4904 32.0432 43.9281 30.9184 42.8033C29.7937 41.6655 29.2314 40.2073 29.2314 38.4287C29.2314 36.4408 29.846 34.8518 31.0754 33.6617C32.3178 32.4716 34.528 31.7523 37.706 31.5038C40.3871 31.2814 42.1788 31.0133 43.0812 30.6995C43.3166 29.9148 43.4343 29.287 43.4343 28.8162C43.4343 28.2146 43.1923 27.7111 42.7084 27.3057C42.2246 26.9002 41.5052 26.6975 40.5505 26.6975C39.5435 26.6975 38.7457 26.9068 38.1572 27.3253C37.5818 27.7307 37.1894 28.3127 36.9802 29.0712ZM42.3357 34.2894C41.9957 34.381 41.5445 34.466 40.9821 34.5445C38.1572 34.8845 36.3132 35.3815 35.45 36.0354C34.8354 36.5062 34.528 37.1405 34.528 37.9383C34.528 38.5922 34.7634 39.148 35.2343 39.6057C35.7051 40.0504 36.3263 40.2727 37.0979 40.2727C37.948 40.2727 38.7457 40.07 39.4912 39.6646C40.2497 39.2461 40.8121 38.7164 41.1783 38.0756C41.5576 37.4217 41.8911 36.4081 42.1788 35.0349L42.3357 34.2894ZM54.2254 23.1664H59.5613L59.012 25.8736C60.346 24.7227 61.5884 23.9053 62.7393 23.4214C63.9032 22.9245 65.1261 22.676 66.4077 22.676C68.121 22.676 69.468 23.1664 70.4489 24.1473C71.4428 25.1282 71.9398 26.4294 71.9398 28.0511C71.9398 28.7835 71.724 30.1698 71.2924 32.21L68.8403 44H63.2101L65.6819 32.1708C66.0481 30.4052 66.2312 29.3524 66.2312 29.0124C66.2312 28.2931 66.0154 27.7307 65.5838 27.3253C65.1653 26.9068 64.5768 26.6975 63.8182 26.6975C62.9943 26.6975 62.0788 27.0441 61.0718 27.7373C60.0648 28.4304 59.2736 29.3459 58.6981 30.4837C58.2796 31.2945 57.8088 32.9489 57.2857 35.4469L55.5005 44H49.8703L54.2254 23.1664ZM72.6476 44L78.6701 15.241H84.3003L81.1615 30.209L88.4984 23.1664H95.8156L87.439 30.7387L91.8922 44H86.262L83.3979 34.3679L79.5921 37.7421L78.2778 44H72.6476Z" fill="white"/>
</svg>
