<svg width="17" height="17" viewBox="0 0 17 17" fill="none" xmlns="http://www.w3.org/2000/svg">
<g id="vuesax/linear/money-send">
<g id="vuesax/linear/money-send_2">
<g id="Group">
<path id="c" d="M8.66957 10.676C8.10072 10.676 7.60575 10.5677 7.18466 10.3512C6.76356 10.1276 6.43851 9.81329 6.20949 9.40814C5.98047 9.00299 5.86597 8.52798 5.86597 7.98312C5.86597 7.57099 5.92876 7.20425 6.05435 6.88293C6.18733 6.55461 6.37571 6.27869 6.6195 6.05516C6.8633 5.82464 7.1588 5.65001 7.50602 5.53126C7.85324 5.40552 8.24109 5.34265 8.66957 5.34265C8.91336 5.34265 9.17562 5.37409 9.45635 5.43695C9.74447 5.49982 10.0141 5.6046 10.2653 5.7513C10.3835 5.82115 10.4611 5.90497 10.498 6.00277C10.5349 6.10056 10.5423 6.20185 10.5202 6.30663C10.498 6.40443 10.45 6.49175 10.3761 6.56858C10.3096 6.63844 10.2247 6.68384 10.1212 6.7048C10.0178 6.71877 9.9033 6.69432 9.77771 6.63145C9.61518 6.54064 9.44896 6.47428 9.27905 6.43237C9.10913 6.38347 8.9466 6.35902 8.79146 6.35902C8.54767 6.35902 8.33343 6.39744 8.14874 6.47428C7.96405 6.54414 7.80522 6.64892 7.67224 6.78862C7.54665 6.92135 7.45061 7.08899 7.38412 7.29157C7.31763 7.49415 7.28439 7.72816 7.28439 7.9936C7.28439 8.51052 7.41367 8.91916 7.67224 9.21953C7.93819 9.51292 8.31127 9.65961 8.79146 9.65961C8.9466 9.65961 9.10544 9.63866 9.26797 9.59674C9.43788 9.55483 9.6078 9.48847 9.77771 9.39766C9.9033 9.33479 10.0141 9.31384 10.1102 9.33479C10.2136 9.35575 10.2985 9.40465 10.365 9.48149C10.4315 9.55134 10.4721 9.63866 10.4869 9.74344C10.5017 9.84123 10.4869 9.93903 10.4426 10.0368C10.4057 10.1346 10.3318 10.215 10.221 10.2778C9.97718 10.4175 9.71861 10.5188 9.44527 10.5817C9.17193 10.6446 8.91336 10.676 8.66957 10.676Z" fill="white"/>
<path id="Vector" d="M8.53271 5.00934V11.0093" stroke="white" stroke-linecap="round" stroke-linejoin="round"/>
</g>
<path id="Vector_2" d="M15.1993 8.00932C15.1993 11.6893 12.2126 14.676 8.53263 14.676C4.85263 14.676 1.86597 11.6893 1.86597 8.00932C1.86597 4.32932 4.85263 1.34265 8.53263 1.34265" stroke="white" stroke-linecap="round" stroke-linejoin="round"/>
<path id="Vector_3" d="M15.1994 4.00932V1.34265H12.5327" stroke="white" stroke-linecap="round" stroke-linejoin="round"/>
<path id="Vector_4" d="M11.866 4.67598L15.1993 1.34265" stroke="white" stroke-linecap="round" stroke-linejoin="round"/>
</g>
</g>
</svg>
