<svg width="17" height="17" viewBox="0 0 17 17" fill="none" xmlns="http://www.w3.org/2000/svg">
<g id="vuesax/linear/money-recive">
<g id="vuesax/linear/money-recive_2">
<g id="Group">
<path id="c" d="M8.66957 11.1433C8.10072 11.1433 7.60575 11.035 7.18466 10.8184C6.76356 10.5949 6.43851 10.2806 6.20949 9.87542C5.98047 9.47027 5.86597 8.99527 5.86597 8.45041C5.86597 8.03827 5.92876 7.67154 6.05435 7.35021C6.18733 7.0219 6.37571 6.74598 6.6195 6.52244C6.8633 6.29193 7.1588 6.11729 7.50602 5.99854C7.85324 5.8728 8.24109 5.80994 8.66957 5.80994C8.91336 5.80994 9.17562 5.84137 9.45635 5.90424C9.74447 5.96711 10.0141 6.07189 10.2653 6.21858C10.3835 6.28843 10.4611 6.37226 10.498 6.47005C10.5349 6.56785 10.5423 6.66914 10.5202 6.77392C10.498 6.87171 10.45 6.95903 10.3761 7.03587C10.3096 7.10572 10.2247 7.15113 10.1212 7.17208C10.0178 7.18606 9.9033 7.16161 9.77771 7.09874C9.61518 7.00793 9.44896 6.94157 9.27905 6.89965C9.10913 6.85076 8.9466 6.82631 8.79146 6.82631C8.54767 6.82631 8.33343 6.86473 8.14874 6.94157C7.96405 7.01142 7.80522 7.1162 7.67224 7.25591C7.54665 7.38863 7.45061 7.55628 7.38412 7.75886C7.31763 7.96143 7.28439 8.19544 7.28439 8.46089C7.28439 8.9778 7.41367 9.38645 7.67224 9.68682C7.93819 9.98021 8.31127 10.1269 8.79146 10.1269C8.9466 10.1269 9.10544 10.1059 9.26797 10.064C9.43788 10.0221 9.6078 9.95576 9.77771 9.86495C9.9033 9.80208 10.0141 9.78112 10.1102 9.80208C10.2136 9.82303 10.2985 9.87193 10.365 9.94877C10.4315 10.0186 10.4721 10.1059 10.4869 10.2107C10.5017 10.3085 10.4869 10.4063 10.4426 10.5041C10.4057 10.6019 10.3318 10.6822 10.221 10.7451C9.97718 10.8848 9.71861 10.9861 9.44527 11.049C9.17193 11.1118 8.91336 11.1433 8.66957 11.1433Z" fill="white"/>
<path id="Vector" d="M8.53271 5.47662V11.4766" stroke="white" stroke-linecap="round" stroke-linejoin="round"/>
</g>
<path id="Vector_2" d="M15.1993 8.4766C15.1993 12.1566 12.2126 15.1433 8.53263 15.1433C4.85263 15.1433 1.86597 12.1566 1.86597 8.4766C1.86597 4.7966 4.85263 1.80994 8.53263 1.80994" stroke="white" stroke-linecap="round" stroke-linejoin="round"/>
<path id="Vector_3" d="M11.866 2.47662V5.14329H14.5326" stroke="white" stroke-linecap="round" stroke-linejoin="round"/>
<path id="Vector_4" d="M15.1993 1.80994L11.866 5.14327" stroke="white" stroke-linecap="round" stroke-linejoin="round"/>
</g>
</g>
</svg>
