<svg width="33" height="32" viewBox="0 0 33 32" fill="none" xmlns="http://www.w3.org/2000/svg">
<g id="vuesax/bold/transaction-minus">
<g id="transaction-minus">
<path id="Vector" d="M8.75174 25.7819L8.74341 25.7902L8.73537 25.7989C8.1835 26.3913 7.69223 26.7456 7.29037 26.9192C6.89505 27.0898 6.6271 27.0712 6.44855 26.9943C6.26513 26.9153 6.05035 26.7206 5.87485 26.2903C5.69847 25.8578 5.58317 25.2329 5.58317 24.4V9.38663C5.58317 6.68979 5.914 5.26449 6.66001 4.46708C7.39122 3.68548 8.69117 3.33329 11.2098 3.33329H21.2898C23.8088 3.33329 25.1082 3.6856 25.8376 4.46665C26.5817 5.26339 26.9099 6.68806 26.9032 9.38497V9.38663V24.3866C26.9032 25.2201 26.7886 25.8453 26.6129 26.278C26.4382 26.7086 26.2244 26.9026 26.0423 26.9812C25.8651 27.0577 25.5978 27.0767 25.2013 26.9057C24.7985 26.732 24.3055 26.3774 23.7502 25.7847C23.0783 25.0641 22.2006 24.7062 21.3169 24.7543C20.4332 24.8024 19.5997 25.2535 19.0098 26.04L19.0094 26.0406L17.665 27.8376C17.6646 27.8381 17.6643 27.8385 17.6639 27.839C17.2311 28.41 16.711 28.6433 16.2432 28.6433C15.7754 28.6433 15.2553 28.41 14.8224 27.839C14.8221 27.8385 14.8217 27.8381 14.8214 27.8376L13.4772 26.0409C13.4771 26.0408 13.477 26.0407 13.477 26.0406C12.2824 24.4425 10.1337 24.3243 8.75844 25.7752L8.75174 25.7819ZM12.5832 15H19.9165C20.8314 15 21.5832 14.2481 21.5832 13.3333C21.5832 12.4184 20.8314 11.6666 19.9165 11.6666H12.5832C11.6683 11.6666 10.9165 12.4184 10.9165 13.3333C10.9165 14.2481 11.6683 15 12.5832 15Z" fill="#E6B014" stroke="#E6B014" stroke-width="1.33333"/>
</g>
</g>
</svg>
