<svg width="33" height="32" viewBox="0 0 33 32" fill="none" xmlns="http://www.w3.org/2000/svg">
<g id="vuesax/bold/transaction-minus">
<g id="transaction-minus">
<path id="Vector" d="M8.75189 25.7819L8.74356 25.7902L8.73553 25.7989C8.18365 26.3913 7.69238 26.7456 7.29052 26.9192C6.8952 27.0898 6.62725 27.0712 6.44871 26.9943C6.26529 26.9153 6.0505 26.7206 5.875 26.2903C5.69862 25.8578 5.58332 25.2329 5.58332 24.4V9.38663C5.58332 6.68979 5.91415 5.26449 6.66016 4.46708C7.39137 3.68548 8.69132 3.33329 11.21 3.33329H21.29C23.809 3.33329 25.1083 3.6856 25.8378 4.46665C26.5818 5.26339 26.91 6.68806 26.9033 9.38497V9.38663V24.3866C26.9033 25.2201 26.7887 25.8453 26.6131 26.278C26.4383 26.7086 26.2245 26.9026 26.0425 26.9812C25.8653 27.0577 25.598 27.0767 25.2015 26.9057C24.7987 26.732 24.3057 26.3774 23.7504 25.7847C23.0785 25.0641 22.2008 24.7062 21.3171 24.7543C20.4333 24.8024 19.5999 25.2535 19.01 26.04L19.0095 26.0406L17.6651 27.8376C17.6648 27.8381 17.6644 27.8385 17.664 27.839C17.2312 28.41 16.7111 28.6433 16.2433 28.6433C15.7755 28.6433 15.2554 28.41 14.8226 27.839C14.8222 27.8385 14.8219 27.8381 14.8215 27.8376L13.4773 26.0409C13.4773 26.0408 13.4772 26.0407 13.4771 26.0406C12.2825 24.4425 10.1339 24.3243 8.75859 25.7752L8.75189 25.7819ZM12.5833 15H19.9167C20.8315 15 21.5833 14.2481 21.5833 13.3333C21.5833 12.4184 20.8315 11.6666 19.9167 11.6666H12.5833C11.6685 11.6666 10.9167 12.4184 10.9167 13.3333C10.9167 14.2481 11.6685 15 12.5833 15Z" fill="#022E64" stroke="#022E64" stroke-width="1.33333"/>
</g>
</g>
</svg>
